<mxfile host="app.diagrams.net" modified="2024-07-22T02:32:32.201Z" agent="Mozilla/5.0 (Windows NT 10.0; Win64; x64) AppleWebKit/537.36 (KHTML, like Gecko) Chrome/114.0.0.0 Safari/537.36" version="24.7.1" etag="6RMB0b6K__VY__AlwXMW" type="github">
  <diagram name="第 1 页" id="VxHALeBs2BCOJVHT1nt_">
    <mxGraphModel>
      <root>
        <mxCell id="0" />
        <mxCell id="1" parent="0" />
      </root>
    </mxGraphModel>
  </diagram>
</mxfile>
